<svg width="40" height="40" viewBox="0 0 40 40" fill="none" xmlns="http://www.w3.org/2000/svg">
<path d="M18 27.3488H22V19.1442L25.2 22.2698L28 19.5349L20 11.7209L12 19.5349L14.8 22.2698L18 19.1442V27.3488ZM20 39.0698C17.2333 39.0698 14.6333 38.557 12.2 37.5314C9.76667 36.5058 7.65 35.114 5.85 33.3558C4.05 31.5977 2.625 29.5302 1.575 27.1535C0.525 24.7767 0 22.2372 0 19.5349C0 16.8326 0.525 14.293 1.575 11.9163C2.625 9.53953 4.05 7.47209 5.85 5.71395C7.65 3.95581 9.76667 2.56395 12.2 1.53837C14.6333 0.512791 17.2333 0 20 0C22.7667 0 25.3667 0.512791 27.8 1.53837C30.2333 2.56395 32.35 3.95581 34.15 5.71395C35.95 7.47209 37.375 9.53953 38.425 11.9163C39.475 14.293 40 16.8326 40 19.5349C40 22.2372 39.475 24.7767 38.425 27.1535C37.375 29.5302 35.95 31.5977 34.15 33.3558C32.35 35.114 30.2333 36.5058 27.8 37.5314C25.3667 38.557 22.7667 39.0698 20 39.0698ZM20 35.1628C24.4667 35.1628 28.25 33.6488 31.35 30.6209C34.45 27.593 36 23.8977 36 19.5349C36 15.1721 34.45 11.4767 31.35 8.44884C28.25 5.42093 24.4667 3.90698 20 3.90698C15.5333 3.90698 11.75 5.42093 8.65 8.44884C5.55 11.4767 4 15.1721 4 19.5349C4 23.8977 5.55 27.593 8.65 30.6209C11.75 33.6488 15.5333 35.1628 20 35.1628Z" fill="#F34220"/>
</svg>
