<svg width="280" height="37" viewBox="0 0 280 37" fill="none" xmlns="http://www.w3.org/2000/svg">
<path d="M0.497778 30.5844C0.342914 30.5844 0.221235 30.5408 0.132741 30.4535C0.0442469 30.3662 0 30.2462 0 30.0934V8.16267C0 8.00992 0.0442469 7.8899 0.132741 7.80261C0.221235 7.71532 0.342914 7.67168 0.497778 7.67168H9.02637C10.8184 7.67168 12.4002 7.97718 13.7719 8.58819C15.1656 9.1992 16.2386 10.0612 16.9908 11.1741C17.743 12.287 18.1191 13.5744 18.1191 15.0365V23.2196C18.1191 24.6817 17.743 25.9691 16.9908 27.0821C16.2386 28.195 15.1656 29.0569 13.7719 29.6679C12.4002 30.2789 10.8184 30.5844 9.02637 30.5844H0.497778ZM6.23881 25.1508C6.23881 25.2599 6.29412 25.3145 6.40474 25.3145H9.25867C10.0109 25.3145 10.6303 25.0308 11.117 24.4635C11.6038 23.8743 11.8582 23.1105 11.8803 22.1722V16.0839C11.8803 15.1456 11.6369 14.3928 11.1502 13.8254C10.6635 13.2362 10.0219 12.9416 9.22548 12.9416H6.40474C6.29412 12.9416 6.23881 12.9962 6.23881 13.1053V25.1508Z" fill="#F8F8F8"/>
<path d="M28.4783 30.8463C26.3766 30.8463 24.5957 30.2898 23.1355 29.1769C21.6975 28.064 20.7462 26.5583 20.2816 24.6598C20.0604 23.8743 19.9497 23.0014 19.9497 22.0412C19.9497 20.972 20.0825 20.0009 20.348 19.1281C20.8789 17.3169 21.8524 15.8984 23.2683 14.8728C24.7063 13.8254 26.454 13.3017 28.5115 13.3017C30.569 13.3017 32.2946 13.8254 33.6884 14.8728C35.1043 15.8984 36.0777 17.295 36.6087 19.0626C36.8742 19.9791 37.0069 20.9502 37.0069 21.9758C37.0069 22.805 36.9184 23.6342 36.7414 24.4635C36.2769 26.4274 35.3145 27.9876 33.8543 29.1442C32.4163 30.2789 30.6243 30.8463 28.4783 30.8463ZM28.4783 25.5764C29.0535 25.5764 29.5181 25.3909 29.8721 25.0199C30.2261 24.6271 30.4694 24.1143 30.6022 23.4815C30.6907 23.0669 30.7349 22.5759 30.7349 22.0085C30.7349 21.5066 30.6796 21.0047 30.569 20.5028C30.2371 19.2153 29.5403 18.5716 28.4783 18.5716C27.3722 18.5716 26.6753 19.2153 26.3877 20.5028C26.277 20.8738 26.2217 21.3757 26.2217 22.0085C26.2217 22.5759 26.266 23.0669 26.3545 23.4815C26.6863 24.8781 27.3943 25.5764 28.4783 25.5764Z" fill="#F8F8F8"/>
<path d="M48.7086 14.0545C48.7086 13.9018 48.7528 13.7817 48.8413 13.6945C48.9298 13.6072 49.0515 13.5635 49.2064 13.5635H54.4496C54.6045 13.5635 54.7262 13.6072 54.8147 13.6945C54.9032 13.7817 54.9474 13.9018 54.9474 14.0545V30.0934C54.9474 30.2462 54.9032 30.3662 54.8147 30.4535C54.7262 30.5408 54.6045 30.5844 54.4496 30.5844H49.2064C49.0515 30.5844 48.9298 30.5408 48.8413 30.4535C48.7528 30.3662 48.7086 30.2462 48.7086 30.0934V29.0133C48.7086 28.9478 48.6865 28.9042 48.6422 28.8823C48.598 28.8605 48.5537 28.8823 48.5095 28.9478C47.6024 30.2135 46.1865 30.8463 44.2618 30.8463C42.5804 30.8463 41.2419 30.3117 40.2464 29.2424C39.2508 28.1513 38.753 26.6456 38.753 24.7253V14.0545C38.753 13.9018 38.7973 13.7817 38.8858 13.6945C38.9743 13.6072 39.0959 13.5635 39.2508 13.5635H44.4941C44.6489 13.5635 44.7706 13.6072 44.8591 13.6945C44.9476 13.7817 44.9919 13.9018 44.9919 14.0545V23.3833C44.9919 24.0379 45.1578 24.5726 45.4896 24.9872C45.8436 25.38 46.2971 25.5764 46.8502 25.5764C47.3369 25.5764 47.7352 25.4345 48.0449 25.1508C48.3767 24.8453 48.5869 24.4416 48.6754 23.9397C48.6975 23.8961 48.7086 23.8306 48.7086 23.7433V14.0545Z" fill="#F8F8F8"/>
<path d="M67.5829 14.0545C67.5829 13.9018 67.6272 13.7817 67.7157 13.6945C67.8042 13.6072 67.9258 13.5635 68.0807 13.5635H73.324C73.4788 13.5635 73.6005 13.6072 73.689 13.6945C73.7775 13.7817 73.8217 13.9018 73.8217 14.0545V28.3586C73.8217 31.4791 72.9036 33.694 71.0674 35.0033C69.2533 36.3344 66.9635 37 64.198 37C62.9591 37 61.7976 36.9018 60.7136 36.7054C60.426 36.6399 60.2822 36.4545 60.2822 36.149L60.4813 31.7301C60.4813 31.3591 60.6804 31.2282 61.0786 31.3373C62.0078 31.5773 62.8817 31.6973 63.7003 31.6973C64.7622 31.6973 65.6361 31.4791 66.3219 31.0427C67.0077 30.6063 67.417 29.9407 67.5497 29.046C67.5719 28.9587 67.5497 28.9042 67.4834 28.8823C67.4391 28.8605 67.3838 28.8823 67.3174 28.9478C66.5652 29.6461 65.4812 29.9952 64.0653 29.9952C60.5255 29.9952 58.2689 28.5768 57.2955 25.74C56.9194 24.6489 56.7314 23.3724 56.7314 21.9103C56.7314 20.2955 56.9637 18.9207 57.4283 17.786C57.9592 16.4113 58.7888 15.3202 59.9171 14.5128C61.0676 13.7054 62.3839 13.3017 63.8662 13.3017C65.3927 13.3017 66.5652 13.7599 67.3838 14.6764C67.4281 14.7201 67.4723 14.7419 67.5165 14.7419C67.5608 14.7201 67.5829 14.6764 67.5829 14.611V14.0545ZM67.2511 24.1361C67.4723 23.5688 67.5829 22.8159 67.5829 21.8776C67.5829 21.0047 67.4613 20.2955 67.2179 19.75C66.8418 18.9644 66.2113 18.5716 65.3263 18.5716C64.552 18.5716 63.9657 18.9535 63.5675 19.7172C63.2135 20.3282 63.0366 21.0811 63.0366 21.9758C63.0366 22.8486 63.1804 23.5579 63.468 24.1034C63.8662 24.8672 64.5078 25.249 65.3927 25.249C66.2776 25.249 66.8971 24.8781 67.2511 24.1361Z" fill="#F8F8F8"/>
<path d="M86.3769 13.3017C87.4831 13.3017 88.4786 13.5417 89.3636 14.0218C90.2485 14.5019 90.9454 15.2111 91.4542 16.1494C91.9852 17.0659 92.2507 18.157 92.2507 19.4226V30.0934C92.2507 30.2462 92.2064 30.3662 92.1179 30.4535C92.0294 30.5408 91.9077 30.5844 91.7529 30.5844H86.5096C86.3548 30.5844 86.2331 30.5408 86.1446 30.4535C86.0561 30.3662 86.0119 30.2462 86.0119 30.0934V20.7647C86.0119 20.11 85.8349 19.5863 85.4809 19.1935C85.149 18.7789 84.7066 18.5716 84.1535 18.5716C83.5783 18.5716 83.1137 18.7789 82.7597 19.1935C82.4278 19.5863 82.2619 20.11 82.2619 20.7647V30.0934C82.2619 30.2462 82.2177 30.3662 82.1292 30.4535C82.0407 30.5408 81.919 30.5844 81.7641 30.5844H76.5209C76.366 30.5844 76.2443 30.5408 76.1558 30.4535C76.0674 30.3662 76.0231 30.2462 76.0231 30.0934V8.16267C76.0231 8.00992 76.0674 7.8899 76.1558 7.80261C76.2443 7.71532 76.366 7.67168 76.5209 7.67168H81.7641C81.919 7.67168 82.0407 7.71532 82.1292 7.80261C82.2177 7.8899 82.2619 8.00992 82.2619 8.16267V15.2329C82.2619 15.3202 82.284 15.3747 82.3283 15.3966C82.3725 15.4184 82.4057 15.3965 82.4278 15.3311C83.2685 13.9781 84.5849 13.3017 86.3769 13.3017Z" fill="#F8F8F8"/>
<path d="M143.065 30.1753C141.329 30.1753 139.793 29.84 138.458 29.1695C137.145 28.499 136.118 27.5561 135.377 26.3409C134.656 25.1046 134.296 23.6798 134.296 22.0664V15.7177C134.296 14.1252 134.656 12.7214 135.377 11.5061C136.118 10.2908 137.145 9.34792 138.458 8.67742C139.793 8.00693 141.329 7.67168 143.065 7.67168C144.802 7.67168 146.327 7.98597 147.641 8.61457C148.975 9.24316 150.002 10.1337 150.723 11.2861C151.464 12.4175 151.835 13.7376 151.835 15.2462C151.835 15.4348 151.676 15.55 151.358 15.5919L146.338 15.9062H146.243C145.989 15.9062 145.861 15.791 145.861 15.5605C145.861 14.7014 145.607 14.0205 145.099 13.5176C144.591 12.9938 143.913 12.7318 143.065 12.7318C142.218 12.7318 141.54 12.9938 141.032 13.5176C140.524 14.0205 140.27 14.7014 140.27 15.5605V22.3179C140.27 23.156 140.524 23.837 141.032 24.3608C141.54 24.8637 142.218 25.1151 143.065 25.1151C143.913 25.1151 144.591 24.8637 145.099 24.3608C145.607 23.837 145.861 23.156 145.861 22.3179C145.861 22.1922 145.904 22.0979 145.989 22.035C146.073 21.9721 146.19 21.9512 146.338 21.9721L151.358 22.2236C151.676 22.2445 151.835 22.3493 151.835 22.5379C151.835 24.0465 151.464 25.377 150.723 26.5294C150.002 27.6819 148.975 28.5828 147.641 29.2324C146.327 29.861 144.802 30.1753 143.065 30.1753Z" fill="#F8F8F8"/>
<path d="M160.933 13.329C162.374 13.329 163.698 13.57 164.905 14.0519C166.112 14.5338 167.066 15.1938 167.765 16.032C168.464 16.8701 168.813 17.7815 168.813 18.7663V29.4524C168.813 29.5991 168.771 29.7143 168.686 29.7981C168.601 29.8819 168.485 29.9238 168.336 29.9238H163.316C163.168 29.9238 163.052 29.8819 162.967 29.7981C162.882 29.7143 162.84 29.5991 162.84 29.4524V28.3524C162.84 28.2685 162.819 28.2266 162.776 28.2266C162.755 28.2057 162.723 28.2266 162.681 28.2895C162.321 28.939 161.823 29.421 161.188 29.7353C160.552 30.0286 159.716 30.1753 158.678 30.1753C156.941 30.1753 155.575 29.7876 154.579 29.0124C153.583 28.2162 153.086 27.0637 153.086 25.5551C153.086 23.9627 153.647 22.7369 154.77 21.8779C155.913 21.0188 157.566 20.5892 159.726 20.5892H162.681C162.787 20.5892 162.84 20.5369 162.84 20.4321V19.8664C162.84 19.4263 162.67 19.0701 162.331 18.7978C162.014 18.5254 161.58 18.3892 161.029 18.3892C160.648 18.3892 160.309 18.452 160.012 18.5777C159.716 18.7035 159.504 18.8711 159.377 19.0806C159.292 19.2273 159.207 19.3321 159.122 19.3949C159.059 19.4368 158.964 19.4473 158.837 19.4263L153.721 18.7978C153.425 18.7558 153.276 18.6301 153.276 18.4206C153.361 17.4777 153.742 16.6186 154.42 15.8434C155.098 15.0681 155.998 14.4605 157.121 14.0205C158.265 13.5595 159.536 13.329 160.933 13.329ZM160.52 26.0894C161.198 26.0894 161.749 25.9113 162.173 25.5551C162.617 25.1989 162.84 24.717 162.84 24.1094V23.7008C162.84 23.596 162.787 23.5436 162.681 23.5436H161.092C159.758 23.5436 159.091 23.9732 159.091 24.8322C159.091 25.2094 159.207 25.5132 159.44 25.7437C159.694 25.9742 160.054 26.0894 160.52 26.0894Z" fill="#F8F8F8"/>
<path d="M171.388 29.9238C171.24 29.9238 171.123 29.8819 171.038 29.7981C170.954 29.7143 170.911 29.5991 170.911 29.4524V8.39456C170.911 8.24789 170.954 8.13265 171.038 8.04883C171.123 7.96502 171.24 7.92311 171.388 7.92311H176.408C176.556 7.92311 176.673 7.96502 176.757 8.04883C176.842 8.13265 176.884 8.24789 176.884 8.39456V29.4524C176.884 29.5991 176.842 29.7143 176.757 29.7981C176.673 29.8819 176.556 29.9238 176.408 29.9238H171.388Z" fill="#F8F8F8"/>
<path d="M186.89 30.1753C185.089 30.1753 183.522 29.7457 182.188 28.8867C180.853 28.0066 179.879 26.7914 179.264 25.2408C178.841 24.1722 178.629 22.9779 178.629 21.6579C178.629 20.3588 178.841 19.1749 179.264 18.1063C179.858 16.6186 180.832 15.4557 182.188 14.6176C183.543 13.7585 185.111 13.329 186.89 13.329C188.69 13.329 190.279 13.7795 191.656 14.6805C193.054 15.5605 193.996 16.671 194.483 18.012C194.632 18.3892 194.727 18.7873 194.769 19.2063V19.3006C194.769 19.5102 194.632 19.6464 194.356 19.7092L189.432 20.495H189.336C189.061 20.495 188.913 20.3588 188.891 20.0864L188.764 19.6464C188.658 19.2902 188.425 18.9968 188.065 18.7663C187.726 18.5149 187.324 18.3892 186.858 18.3892C186.011 18.3892 185.407 18.7663 185.047 19.5206C184.793 20.0445 184.666 20.7673 184.666 21.6893C184.666 22.5484 184.782 23.2712 185.015 23.8579C185.375 24.696 185.99 25.1151 186.858 25.1151C187.79 25.1151 188.425 24.6332 188.764 23.6693L188.796 23.5436C188.86 23.1874 189.04 23.0408 189.336 23.1036L194.293 23.9208C194.568 23.9836 194.706 24.1303 194.706 24.3608C194.706 24.6122 194.632 24.958 194.483 25.398C193.933 26.9275 192.969 28.1114 191.592 28.9495C190.237 29.7667 188.669 30.1753 186.89 30.1753Z" fill="#F8F8F8"/>
<path d="M205.884 14.0519C205.884 13.9052 205.927 13.79 206.011 13.7062C206.096 13.6223 206.213 13.5804 206.361 13.5804H211.381C211.529 13.5804 211.646 13.6223 211.73 13.7062C211.815 13.79 211.857 13.9052 211.857 14.0519V29.4524C211.857 29.5991 211.815 29.7143 211.73 29.7981C211.646 29.8819 211.529 29.9238 211.381 29.9238H206.361C206.213 29.9238 206.096 29.8819 206.011 29.7981C205.927 29.7143 205.884 29.5991 205.884 29.4524V28.4152C205.884 28.3524 205.863 28.3104 205.821 28.2895C205.778 28.2685 205.736 28.2895 205.694 28.3524C204.825 29.5676 203.47 30.1753 201.627 30.1753C200.017 30.1753 198.735 29.6619 197.782 28.6352C196.829 27.5876 196.353 26.1418 196.353 24.2979V14.0519C196.353 13.9052 196.395 13.79 196.48 13.7062C196.564 13.6223 196.681 13.5804 196.829 13.5804H201.849C201.997 13.5804 202.114 13.6223 202.199 13.7062C202.283 13.79 202.326 13.9052 202.326 14.0519V23.0093C202.326 23.6379 202.485 24.1513 202.802 24.5494C203.141 24.9265 203.575 25.1151 204.105 25.1151C204.571 25.1151 204.952 24.9789 205.249 24.7065C205.567 24.4132 205.768 24.0255 205.852 23.5436C205.874 23.5017 205.884 23.4389 205.884 23.355V14.0519Z" fill="#F8F8F8"/>
<path d="M214.423 29.9238C214.275 29.9238 214.159 29.8819 214.074 29.7981C213.989 29.7143 213.947 29.5991 213.947 29.4524V8.39456C213.947 8.24789 213.989 8.13265 214.074 8.04883C214.159 7.96502 214.275 7.92311 214.423 7.92311H219.443C219.592 7.92311 219.708 7.96502 219.793 8.04883C219.878 8.13265 219.92 8.24789 219.92 8.39456V29.4524C219.92 29.5991 219.878 29.7143 219.793 29.7981C219.708 29.8819 219.592 29.9238 219.443 29.9238H214.423Z" fill="#F8F8F8"/>
<path d="M229.195 13.329C230.635 13.329 231.959 13.57 233.166 14.0519C234.373 14.5338 235.327 15.1938 236.026 16.032C236.725 16.8701 237.074 17.7815 237.074 18.7663V29.4524C237.074 29.5991 237.032 29.7143 236.947 29.7981C236.862 29.8819 236.746 29.9238 236.597 29.9238H231.577C231.429 29.9238 231.313 29.8819 231.228 29.7981C231.143 29.7143 231.101 29.5991 231.101 29.4524V28.3524C231.101 28.2685 231.08 28.2266 231.037 28.2266C231.016 28.2057 230.984 28.2266 230.942 28.2895C230.582 28.939 230.084 29.421 229.449 29.7353C228.813 30.0286 227.977 30.1753 226.939 30.1753C225.202 30.1753 223.836 29.7876 222.84 29.0124C221.844 28.2162 221.347 27.0637 221.347 25.5551C221.347 23.9627 221.908 22.7369 223.031 21.8779C224.174 21.0188 225.827 20.5892 227.987 20.5892H230.942C231.048 20.5892 231.101 20.5369 231.101 20.4321V19.8664C231.101 19.4263 230.931 19.0701 230.593 18.7978C230.275 18.5254 229.841 18.3892 229.29 18.3892C228.909 18.3892 228.57 18.452 228.273 18.5777C227.977 18.7035 227.765 18.8711 227.638 19.0806C227.553 19.2273 227.468 19.3321 227.383 19.3949C227.32 19.4368 227.225 19.4473 227.098 19.4263L221.982 18.7978C221.686 18.7558 221.537 18.6301 221.537 18.4206C221.622 17.4777 222.003 16.6186 222.681 15.8434C223.359 15.0681 224.259 14.4605 225.382 14.0205C226.526 13.5595 227.797 13.329 229.195 13.329ZM228.781 26.0894C229.459 26.0894 230.01 25.9113 230.434 25.5551C230.878 25.1989 231.101 24.717 231.101 24.1094V23.7008C231.101 23.596 231.048 23.5436 230.942 23.5436H229.353C228.019 23.5436 227.352 23.9732 227.352 24.8322C227.352 25.2094 227.468 25.5132 227.701 25.7437C227.955 25.9742 228.315 26.0894 228.781 26.0894Z" fill="#F8F8F8"/>
<path d="M249.509 17.8234C249.509 17.9701 249.467 18.0854 249.382 18.1692C249.298 18.253 249.181 18.2949 249.033 18.2949H246.396C246.29 18.2949 246.237 18.3473 246.237 18.452V23.3865C246.237 24.4341 246.618 24.958 247.381 24.958H248.556C248.705 24.958 248.821 24.9999 248.906 25.0837C248.991 25.1675 249.033 25.2827 249.033 25.4294V29.4524C249.033 29.7457 248.874 29.9134 248.556 29.9553C247.73 30.0181 246.936 30.0496 246.173 30.0496C244.246 30.0496 242.827 29.7562 241.916 29.1695C241.005 28.5828 240.539 27.4723 240.518 25.838V18.452C240.518 18.3473 240.465 18.2949 240.359 18.2949H238.643C238.495 18.2949 238.379 18.253 238.294 18.1692C238.209 18.0854 238.167 17.9701 238.167 17.8234V14.0519C238.167 13.9052 238.209 13.79 238.294 13.7062C238.379 13.6223 238.495 13.5804 238.643 13.5804H240.359C240.465 13.5804 240.518 13.5281 240.518 13.4233V9.65174C240.518 9.50507 240.56 9.38983 240.645 9.30602C240.73 9.22221 240.846 9.1803 240.995 9.1803H245.76C245.909 9.1803 246.025 9.22221 246.11 9.30602C246.195 9.38983 246.237 9.50507 246.237 9.65174V13.4233C246.237 13.5281 246.29 13.5804 246.396 13.5804H249.033C249.181 13.5804 249.298 13.6223 249.382 13.7062C249.467 13.79 249.509 13.9052 249.509 14.0519V17.8234Z" fill="#F8F8F8"/>
<path d="M258.872 30.1753C256.86 30.1753 255.155 29.641 253.757 28.5724C252.38 27.5038 251.469 26.058 251.024 24.2351C250.812 23.4808 250.706 22.6426 250.706 21.7207C250.706 20.694 250.834 19.7616 251.088 18.9235C251.596 17.1844 252.528 15.8224 253.884 14.8376C255.26 13.8319 256.934 13.329 258.904 13.329C260.874 13.329 262.526 13.8319 263.86 14.8376C265.216 15.8224 266.148 17.1634 266.656 18.8606C266.91 19.7406 267.037 20.6731 267.037 21.6579C267.037 22.4541 266.953 23.2503 266.783 24.0465C266.338 25.9323 265.417 27.4304 264.019 28.5409C262.642 29.6305 260.927 30.1753 258.872 30.1753ZM258.872 25.1151C259.423 25.1151 259.867 24.937 260.206 24.5808C260.545 24.2036 260.778 23.7113 260.905 23.1036C260.99 22.7055 261.032 22.2341 261.032 21.6893C261.032 21.2074 260.98 20.7254 260.874 20.2435C260.556 19.0073 259.889 18.3892 258.872 18.3892C257.813 18.3892 257.146 19.0073 256.87 20.2435C256.764 20.5997 256.711 21.0816 256.711 21.6893C256.711 22.2341 256.754 22.7055 256.839 23.1036C257.156 24.4446 257.834 25.1151 258.872 25.1151Z" fill="#F8F8F8"/>
<path d="M278.05 13.3604C278.771 13.3604 279.342 13.4966 279.766 13.769C279.957 13.8738 280.031 14.0728 279.988 14.3662L279.226 19.2063C279.205 19.374 279.141 19.4787 279.035 19.5206C278.951 19.5625 278.823 19.5625 278.654 19.5206C278.273 19.4368 277.934 19.3949 277.637 19.3949C277.32 19.3949 277.023 19.4263 276.748 19.4892C276.197 19.594 275.72 19.8245 275.318 20.1807C274.937 20.5159 274.746 20.9769 274.746 21.5636V29.4524C274.746 29.5991 274.704 29.7143 274.619 29.7981C274.534 29.8819 274.418 29.9238 274.269 29.9238H269.249C269.101 29.9238 268.985 29.8819 268.9 29.7981C268.815 29.7143 268.773 29.5991 268.773 29.4524V14.0519C268.773 13.9052 268.815 13.79 268.9 13.7062C268.985 13.6223 269.101 13.5804 269.249 13.5804H274.269C274.418 13.5804 274.534 13.6223 274.619 13.7062C274.704 13.79 274.746 13.9052 274.746 14.0519V14.8062C274.746 14.8691 274.767 14.911 274.81 14.9319C274.852 14.9529 274.884 14.9424 274.905 14.9005C275.71 13.8738 276.758 13.3604 278.05 13.3604Z" fill="#F8F8F8"/>
<path d="M112 36.8241L92.2963 7.75243C95.0877 5.4267 98.1499 3.5532 101.483 2.13192C104.816 0.71064 108.322 0 112 0C115.678 0 119.184 0.702564 122.517 2.10769C125.85 3.51282 128.912 5.3944 131.704 7.75243L112 36.8241ZM112 29.8469L126.384 8.62458C124.249 7.171 121.967 6.01621 119.537 5.16021C117.107 4.30422 114.594 3.87622 112 3.87622C109.406 3.87622 106.902 4.30422 104.488 5.16021C102.074 6.01621 99.7837 7.171 97.6163 8.62458L112 29.8469ZM107.074 13.5668C107.895 13.5668 108.593 13.2841 109.168 12.7188C109.742 12.1536 110.03 11.4671 110.03 10.6596C110.03 9.85205 109.742 9.16564 109.168 8.60036C108.593 8.03508 107.895 7.75243 107.074 7.75243C106.253 7.75243 105.555 8.03508 104.981 8.60036C104.406 9.16564 104.119 9.85205 104.119 10.6596C104.119 11.4671 104.406 12.1536 104.981 12.7188C105.555 13.2841 106.253 13.5668 107.074 13.5668ZM112 23.2573C112.821 23.2573 113.519 22.9747 114.094 22.4094C114.668 21.8441 114.956 21.1577 114.956 20.3501C114.956 19.5426 114.668 18.8562 114.094 18.2909C113.519 17.7256 112.821 17.443 112 17.443C111.179 17.443 110.481 17.7256 109.906 18.2909C109.332 18.8562 109.044 19.5426 109.044 20.3501C109.044 21.1577 109.332 21.8441 109.906 22.4094C110.481 22.9747 111.179 23.2573 112 23.2573Z" fill="#F34220"/>
</svg>
