<svg width="16" height="16" viewBox="0 0 16 16" fill="none" xmlns="http://www.w3.org/2000/svg">
<path d="M8 15.95L0 3.95C1.13333 2.99 2.37667 2.21667 3.73 1.63C5.08333 1.04333 6.50667 0.75 8 0.75C9.49333 0.75 10.9167 1.04 12.27 1.62C13.6233 2.2 14.8667 2.97667 16 3.95L8 15.95ZM8 13.07L13.84 4.31C12.9733 3.71 12.0467 3.23333 11.06 2.88C10.0733 2.52667 9.05333 2.35 8 2.35C6.94667 2.35 5.93 2.52667 4.95 2.88C3.97 3.23333 3.04 3.71 2.16 4.31L8 13.07ZM6 6.35C6.33333 6.35 6.61667 6.23333 6.85 6C7.08333 5.76667 7.2 5.48333 7.2 5.15C7.2 4.81667 7.08333 4.53333 6.85 4.3C6.61667 4.06667 6.33333 3.95 6 3.95C5.66667 3.95 5.38333 4.06667 5.15 4.3C4.91667 4.53333 4.8 4.81667 4.8 5.15C4.8 5.48333 4.91667 5.76667 5.15 6C5.38333 6.23333 5.66667 6.35 6 6.35ZM8 10.35C8.33333 10.35 8.61667 10.2333 8.85 10C9.08333 9.76667 9.2 9.48333 9.2 9.15C9.2 8.81667 9.08333 8.53333 8.85 8.3C8.61667 8.06667 8.33333 7.95 8 7.95C7.66667 7.95 7.38333 8.06667 7.15 8.3C6.91667 8.53333 6.8 8.81667 6.8 9.15C6.8 9.48333 6.91667 9.76667 7.15 10C7.38333 10.2333 7.66667 10.35 8 10.35Z" fill="#F34220"/>
</svg>
