<svg width="25" height="25" viewBox="0 0 25 25" fill="none" xmlns="http://www.w3.org/2000/svg">
<path d="M12.5 24.5L0 5.75C1.77083 4.25 3.71354 3.04167 5.82812 2.125C7.94271 1.20833 10.1667 0.75 12.5 0.75C14.8333 0.75 17.0573 1.20312 19.1719 2.10938C21.2865 3.01562 23.2292 4.22917 25 5.75L12.5 24.5ZM12.5 20L21.625 6.3125C20.2708 5.375 18.8229 4.63021 17.2812 4.07813C15.7396 3.52604 14.1458 3.25 12.5 3.25C10.8542 3.25 9.26562 3.52604 7.73438 4.07813C6.20312 4.63021 4.75 5.375 3.375 6.3125L12.5 20ZM9.375 9.5C9.89583 9.5 10.3385 9.31771 10.7031 8.95312C11.0677 8.58854 11.25 8.14583 11.25 7.625C11.25 7.10417 11.0677 6.66146 10.7031 6.29688C10.3385 5.93229 9.89583 5.75 9.375 5.75C8.85417 5.75 8.41146 5.93229 8.04688 6.29688C7.68229 6.66146 7.5 7.10417 7.5 7.625C7.5 8.14583 7.68229 8.58854 8.04688 8.95312C8.41146 9.31771 8.85417 9.5 9.375 9.5ZM12.5 15.75C13.0208 15.75 13.4635 15.5677 13.8281 15.2031C14.1927 14.8385 14.375 14.3958 14.375 13.875C14.375 13.3542 14.1927 12.9115 13.8281 12.5469C13.4635 12.1823 13.0208 12 12.5 12C11.9792 12 11.5365 12.1823 11.1719 12.5469C10.8073 12.9115 10.625 13.3542 10.625 13.875C10.625 14.3958 10.8073 14.8385 11.1719 15.2031C11.5365 15.5677 11.9792 15.75 12.5 15.75Z" fill="#666666"/>
</svg>
